<svg style="height: 512px; width: 512px;" xmlns="http://www.w3.org/2000/svg" viewBox="0 0 512 512"><polygon points="492.51,353.97,353.97,492.51,158.03,492.51,19.49,353.97,19.49,158.03,158.03,19.49,353.97,19.49,492.51,158.03" fill="#bd10e0" fill-opacity="1"></polygon><g class="" style="" transform="translate(0,0)"><path d="m256 29.816-231 154v106.368l231-154 231 154V183.816zm0 128.043L105 259.783v90.283l151-101.925 151 101.925v-90.283zm0 112-87 58.725v67.6l87-58 87 58v-67.6zm0 89.957-87 58v64.368l87-58 87 58v-64.368z" fill="#ffffff" fill-opacity="1" transform="translate(51.2, 51.2) scale(0.8, 0.8) rotate(0, 256, 256) skewX(0) skewY(0)"></path></g></svg>